# xmcd
#
# Track frame offsets:
#	150
#	16950
#	39150
#	58125
#	79875
#	98175
#	116925
#	140775
#	160200
#	188250
#
# Disc length: 2767 seconds
# Revision: 0
# Processed by: cddbd v1.5.2PL0 Copyright (c) Steve Scherf et al.
# Submitted via: dBpowerAMP V12.0
#
DISCID=800acd0a
DTITLE=Laura Rain And The Caesars - Electrified
DYEAR=2013
DGENRE=Blues Female
TTITLE0=Sunset
TTITLE1=My Love
TTITLE2=Electrified
TTITLE3=Bus Stop
TTITLE4=Four Long Years
TTITLE5=I Don't Wanna Play
TTITLE6=No Good Love
TTITLE7=Lonely
TTITLE8=Old House
TTITLE9=No More
EXTD=
EXTT0=
EXTT1=
EXTT2=
EXTT3=
EXTT4=
EXTT5=
EXTT6=
EXTT7=
EXTT8=
EXTT9=
PLAYORDER=
